<svg width="136" height="89" viewBox="0 0 136 89" fill="none" xmlns="http://www.w3.org/2000/svg">
<path fill-rule="evenodd" clip-rule="evenodd" d="M104.727 49.1138L135.091 55.9869L120.635 27.7823L0.850586 16.6562L104.727 49.1138Z" fill="#BF3E00"/>
<path fill-rule="evenodd" clip-rule="evenodd" d="M135.091 55.9899L83.5078 52.811L96.1507 46.4375L135.091 55.9899Z" fill="#802500"/>
<path fill-rule="evenodd" clip-rule="evenodd" d="M0.853516 16.6554L120.634 27.7854L129.659 0.3125L0.853516 16.6554Z" fill="#FF7D40"/>
<path fill-rule="evenodd" clip-rule="evenodd" d="M89.243 88.7199L104.726 49.1177L0.853516 16.6562L89.243 88.7199Z" fill="#FF7D40"/>
<path fill-rule="evenodd" clip-rule="evenodd" d="M104.727 49.1138L135.091 55.9869L120.635 27.7823L0.850586 16.6562L104.727 49.1138Z" fill="#BF3E00"/>
<path fill-rule="evenodd" clip-rule="evenodd" d="M135.091 55.9899L83.5078 52.811L96.1507 46.4375L135.091 55.9899Z" fill="#802500"/>
<path fill-rule="evenodd" clip-rule="evenodd" d="M0.853516 16.6554L120.634 27.7854L129.659 0.3125L0.853516 16.6554Z" fill="#FF7D40"/>
<path fill-rule="evenodd" clip-rule="evenodd" d="M89.243 88.7199L104.726 49.1177L0.853516 16.6562L89.243 88.7199Z" fill="#FF7D40"/>
</svg>
