<svg width="422" height="284" viewBox="0 0 422 284" fill="none" xmlns="http://www.w3.org/2000/svg">
<path opacity="0.080334" fill-rule="evenodd" clip-rule="evenodd" d="M56.9038 198.492L38.5188 213.791L23.0919 195.558L41.477 180.259L56.9038 198.492ZM100.543 250.207L78.4202 224.06L100.706 205.514L85.5473 187.598L22.7315 239.871L37.8906 257.787L60.1827 239.236L82.3054 265.383L100.543 250.207Z" fill="#A0AFC3"/>
<path opacity="0.160334" fill-rule="evenodd" clip-rule="evenodd" d="M100.146 90.7467L89.5717 93.7537L86.5397 83.2672L97.1136 80.2603L100.146 90.7467ZM108.332 120.59L104.08 105.882L116.698 102.294L113.784 92.2154L78.2174 102.33L81.1314 112.408L93.7533 108.819L98.0059 123.527L108.332 120.59Z" fill="#A0AFC3"/>
<path opacity="0.240334" fill-rule="evenodd" clip-rule="evenodd" d="M360.313 65.3281L319.94 53.847L331.517 13.8076L371.89 25.2887L360.313 65.3281ZM327.635 179.788L344.318 122.087L393.428 136.053L404.86 96.5151L266.438 57.1514L255.007 96.6893L304.13 110.659L287.447 168.359L327.635 179.788Z" fill="#A0AFC3"/>
</svg>
