<svg width="24" height="25" viewBox="0 0 24 25" fill="none" xmlns="http://www.w3.org/2000/svg">
<path fill-rule="evenodd" clip-rule="evenodd" d="M21 12.3401C21 17.3324 16.9706 21.3794 12 21.3794C7.02943 21.3794 3 17.3324 3 12.3401C3 7.34781 7.02943 3.30078 12 3.30078C16.9706 3.30078 21 7.34781 21 12.3401ZM11.9896 6.36769C12.4334 6.36769 12.7932 6.72903 12.7932 7.17477V14.4062C12.7932 14.8519 12.4334 15.2133 11.9896 15.2133C11.5459 15.2133 11.1861 14.8519 11.1861 14.4062V7.17477C11.1861 6.72903 11.5459 6.36769 11.9896 6.36769ZM12.7932 16.7306C12.7932 16.2848 12.4334 15.9235 11.9896 15.9235C11.5459 15.9235 11.1861 16.2848 11.1861 16.7306V17.2471C11.1861 17.6928 11.5459 18.0542 11.9896 18.0542C12.4334 18.0542 12.7932 17.6928 12.7932 17.2471V16.7306Z" fill="#D20202"/>
</svg>
