<svg width="16" height="16" viewBox="0 0 16 16" fill="none" xmlns="http://www.w3.org/2000/svg">
<path d="M4.42259 3.24408C4.09715 2.91864 3.56951 2.91864 3.24408 3.24408C2.91864 3.56951 2.91864 4.09715 3.24408 4.42259L6.82149 8L3.24408 11.5774C2.91864 11.9028 2.91864 12.4305 3.24408 12.7559C3.56951 13.0814 4.09715 13.0814 4.42259 12.7559L8 9.17851L11.5774 12.7559C11.9028 13.0814 12.4305 13.0814 12.7559 12.7559C13.0814 12.4305 13.0814 11.9028 12.7559 11.5774L9.17851 8L12.7559 4.42259C13.0814 4.09715 13.0814 3.56951 12.7559 3.24408C12.4305 2.91864 11.9028 2.91864 11.5774 3.24408L8 6.82149L4.42259 3.24408Z" fill="white"/>
</svg>
