<svg width="17" height="13" viewBox="0 0 17 13" fill="none" xmlns="http://www.w3.org/2000/svg">
<path d="M3.1 13L5.5 10.8C6.4 11.1 7.4 11.3 8.5 11.3C13.9 11.3 17 6.7 17 6.7C17 6.7 15.6 4.6 13.4 3.1L15.5 1L14.5 -2.18557e-07L2.1 12L3.1 13ZM7.4 8.9C9.7 9.9 12.1 7.5 11.1 5.2L12.3 4C13.6 4.8 14.6 5.9 15.2 6.6C14.1 7.8 11.8 9.9 8.5 9.9C7.8 9.9 7.2 9.8 6.7 9.7C6.6 9.7 7.4 8.9 7.4 8.9ZM9.4 3.7L5.8 7.2C5.1 5 7.2 2.9 9.4 3.7ZM5.50764e-07 6.7C5.50764e-07 6.7 3 1.4 8.5 1.4C9.5 1.4 10.4 1.6 11.2 1.9L10.1 3C9.6 2.9 9.1 2.8 8.5 2.8C5.1 2.8 2.8 5.3 1.8 6.6C2.3 7.2 3.2 8 4.3 8.7L3.2 9.7C1.1 8.4 5.50764e-07 6.7 5.50764e-07 6.7Z" fill="#A0ABB5"/>
</svg>
