<svg width="139" height="48" viewBox="0 0 139 48" fill="none" xmlns="http://www.w3.org/2000/svg">
<path fill-rule="evenodd" clip-rule="evenodd" d="M4.94086 5.94585H1.97314V0.0195312H4.94086V5.94585ZM4.9408 8.94995H7.90851V47.5393H4.9408V26.7562V8.94995ZM37.5674 8.94995H34.5997V47.5393H37.5674V26.7562V8.94995ZM40.5352 0.0195312V5.94585H37.5675V0.0195312H40.5352Z" fill="#E4E4E5"/>
<path fill-rule="evenodd" clip-rule="evenodd" d="M10.8765 5.94585H13.8442V0.0195312H10.8765V5.94585ZM16.8027 8.94995H13.8441V26.7562V47.5393H16.8027V8.94995ZM7.90869 8.94995H10.8764V26.7562V47.5393H7.90869V8.94995ZM4.94103 8.94995H1.98242V26.7562H4.94103V8.94995ZM19.7705 8.94995H22.7382V26.7562H19.7705V8.94995ZM28.6735 8.94995H25.7058V47.5393H28.6735V26.7562V8.94995ZM37.5676 8.94995H40.5353V26.7562H37.5676V8.94995ZM34.5999 8.94995H31.6322V26.7562V47.5393H34.5999V8.94995ZM31.6322 0.0195312V5.94585H28.6736V0.0195312H31.6322Z" fill="#9CD1CE"/>
<path fill-rule="evenodd" clip-rule="evenodd" d="M19.7705 5.94585H22.7382V0.0195312H19.7705V5.94585ZM13.8442 8.94995H10.8765V26.7562H13.8442V8.94995ZM22.7382 8.94995H25.7059V47.5393H22.7382V26.7562V8.94995ZM19.7704 8.94995H16.8027V47.5393H19.7704V26.7562V8.94995ZM31.6322 8.94995V26.7562H28.6736V8.94995H31.6322Z" fill="#4D79BC"/>
<path d="M59.5194 0V47.5198" stroke="#C9CACB" stroke-width="0.75"/>
<path fill-rule="evenodd" clip-rule="evenodd" d="M86.2162 14.8008C85.6942 14.8069 85.236 14.9252 84.8415 15.1558C84.4471 15.3925 84.1406 15.7111 83.9221 16.1117C83.6976 16.5062 83.5822 16.9583 83.5762 17.4681C83.5822 17.9961 83.6976 18.4573 83.9221 18.8518C84.1527 19.2523 84.4653 19.5649 84.8598 19.7894C85.2542 20.014 85.7064 20.1263 86.2162 20.1263C86.7199 20.1263 87.169 20.011 87.5635 19.7803C87.9579 19.5558 88.2705 19.2432 88.5011 18.8427C88.7317 18.4421 88.847 17.9839 88.847 17.4681C88.847 16.934 88.7317 16.4697 88.5011 16.0753C88.2705 15.6747 87.9579 15.3622 87.5635 15.1376C87.169 14.9191 86.7199 14.8069 86.2162 14.8008ZM104.687 25.2789C104.238 25.5034 103.88 25.8008 103.613 26.171L104.414 27.1086C104.639 26.8113 104.881 26.5928 105.142 26.4532C105.403 26.3136 105.698 26.2438 106.025 26.2438C106.365 26.2438 106.641 26.3257 106.854 26.4896C107.072 26.6535 107.184 26.9053 107.191 27.2452C107.184 27.4697 107.127 27.6579 107.018 27.8096C106.914 27.9674 106.775 28.0857 106.599 28.1646C106.429 28.2496 106.244 28.2921 106.044 28.2921H105.27V29.603H106.089C106.55 29.609 106.899 29.7031 107.136 29.8852C107.373 30.0733 107.491 30.3282 107.491 30.6499C107.491 30.923 107.421 31.1445 107.282 31.3144C107.148 31.4904 106.969 31.6209 106.744 31.7059C106.526 31.7848 106.286 31.8242 106.025 31.8242C105.698 31.8242 105.364 31.7332 105.024 31.5511C104.684 31.369 104.387 31.1354 104.132 30.8501L103.376 31.7969C103.51 32.0154 103.701 32.2248 103.95 32.425C104.199 32.6314 104.502 32.7983 104.86 32.9257C105.212 33.0592 105.625 33.129 106.098 33.1351C106.584 33.129 107.039 33.035 107.464 32.8529C107.876 32.6648 108.216 32.3947 108.483 32.0427C108.738 31.6907 108.869 31.2719 108.875 30.7864C108.881 30.3252 108.775 29.9246 108.556 29.5848C108.332 29.257 107.98 29.0264 107.5 28.8929V28.8656C107.87 28.641 108.14 28.371 108.31 28.0554C108.486 27.7459 108.574 27.4333 108.574 27.1177C108.568 26.6444 108.465 26.2468 108.265 25.9252C108.064 25.5975 107.785 25.3517 107.427 25.1878C107.069 25.0179 106.656 24.9329 106.189 24.9329C105.637 24.939 105.136 25.0543 104.687 25.2789ZM92.1701 26.3512C91.9819 25.9628 91.6633 25.6472 91.2142 25.4045C90.7651 25.1678 90.1521 25.0434 89.3753 25.0312C89.2357 25.0312 89.0628 25.0343 88.8564 25.0404C88.6501 25.0404 88.4346 25.0434 88.2101 25.0495C87.9855 25.0495 87.7762 25.0525 87.5819 25.0586H87.1177V33.0058H88.5196V30.1383C88.6956 30.1504 88.8777 30.1595 89.0658 30.1656H89.5483C90.1795 30.1595 90.7105 30.0351 91.1414 29.7923C91.5723 29.5556 91.897 29.2461 92.1154 28.8638C92.34 28.4754 92.4523 28.0505 92.4523 27.5893C92.4583 27.1463 92.3643 26.7336 92.1701 26.3512ZM78.5148 26.6626L78.5967 25.0695H83.5217V31.6968H84.605V34.4278H83.2941V33.0077H77.741V34.4278H76.4392V31.6968H77.2858C77.4011 31.5633 77.5468 31.2871 77.7228 30.8684C77.8927 30.4496 78.0535 29.8882 78.2053 29.1842C78.357 28.4863 78.4602 27.6458 78.5148 26.6626ZM82.1381 26.3789H79.9441L79.8258 27.7535C79.7712 28.4454 79.6832 29.0644 79.5618 29.6106C79.4404 30.1568 79.3099 30.612 79.1703 30.9761C79.0368 31.3342 78.9185 31.5739 78.8153 31.6953H82.1381V26.3789ZM117.14 30.2948C117.14 29.7729 117.034 29.3177 116.822 28.9293C116.609 28.5531 116.282 28.2587 115.839 28.0463C115.396 27.8339 114.831 27.7277 114.145 27.7277C114.036 27.7277 113.903 27.7307 113.745 27.7368C113.587 27.7429 113.42 27.758 113.244 27.7823V25.0695H111.842V33.0077C112.085 33.0077 112.382 33.0107 112.734 33.0168C113.092 33.0228 113.466 33.0259 113.854 33.0259C114.91 33.0198 115.72 32.774 116.285 32.2885C116.855 31.809 117.14 31.1445 117.14 30.2948ZM115.666 30.3239C115.66 29.8809 115.511 29.5562 115.22 29.3499C114.922 29.1375 114.528 29.0312 114.036 29.0312C113.933 29.0312 113.815 29.0373 113.681 29.0495C113.548 29.0555 113.402 29.0707 113.244 29.095V31.6894C113.366 31.6955 113.49 31.7046 113.618 31.7168C113.745 31.7228 113.876 31.7259 114.009 31.7259C114.525 31.7259 114.932 31.6136 115.229 31.389C115.52 31.1706 115.666 30.8155 115.666 30.3239ZM90.7771 28.3103C90.9045 28.1222 90.9713 27.8794 90.9773 27.5821C90.9773 27.1694 90.8529 26.8599 90.6041 26.6535C90.3553 26.4472 89.9911 26.344 89.5117 26.344C89.3721 26.344 89.2173 26.347 89.0474 26.3531C88.8835 26.3531 88.7075 26.3592 88.5194 26.3713V28.8019C88.6833 28.8262 88.8471 28.8414 89.011 28.8474C89.1809 28.8596 89.3448 28.8656 89.5026 28.8656C89.7817 28.8656 90.0306 28.8201 90.2491 28.7291C90.4736 28.6381 90.6496 28.4985 90.7771 28.3103ZM100.299 25.0695H101.71L99.0067 31.1597C98.7397 31.7666 98.4362 32.2248 98.0964 32.5343C97.7565 32.8499 97.3408 33.0077 96.8492 33.0077C96.6429 33.0016 96.4365 32.9712 96.2302 32.9166C96.0299 32.8499 95.8721 32.774 95.7568 32.689L96.2484 31.5056C96.3515 31.5784 96.4486 31.63 96.5397 31.6604C96.6307 31.6846 96.7309 31.6968 96.8401 31.6968C97.0222 31.6968 97.18 31.6482 97.3135 31.5511C97.4409 31.4479 97.5441 31.3114 97.623 31.1415L97.7322 30.8775L94.2274 25.0695H95.8023L98.4059 29.5028L100.299 25.0695ZM124.241 25.0512L123.504 25.033C123.255 25.0269 123.046 25.0239 122.876 25.0239C122.099 25.03 121.471 25.1604 120.991 25.4153C120.512 25.6642 120.16 25.9949 119.935 26.4076C119.711 26.8264 119.599 27.2815 119.599 27.7731C119.605 28.1373 119.671 28.4619 119.799 28.7472C119.926 29.0324 120.096 29.2782 120.309 29.4846C120.515 29.6848 120.746 29.8487 121.001 29.9761L118.961 33.0076H120.536L122.311 30.2584H123.459V33.0076H124.842V25.0603C124.684 25.0603 124.484 25.0573 124.241 25.0512ZM122.585 26.3359C122.117 26.342 121.75 26.4664 121.483 26.7092C121.216 26.9519 121.079 27.2766 121.073 27.6832C121.079 27.9199 121.134 28.1263 121.237 28.3023C121.346 28.4783 121.483 28.6209 121.647 28.7301C121.817 28.8394 121.999 28.9122 122.193 28.9486H123.458V26.3724C123.392 26.3663 123.307 26.3602 123.204 26.3541C123.094 26.3481 122.985 26.345 122.876 26.345C122.767 26.339 122.669 26.3359 122.585 26.3359ZM84.505 16.392C84.329 16.7015 84.241 17.0596 84.241 17.4662C84.247 17.8607 84.335 18.2127 84.505 18.5222C84.6749 18.8317 84.9086 19.0775 85.2059 19.2596C85.5033 19.4416 85.8401 19.5327 86.2164 19.5327C86.6109 19.5327 86.9568 19.4416 87.2542 19.2596C87.5455 19.0775 87.7731 18.8317 87.937 18.5222C88.1008 18.2127 88.1858 17.8607 88.1918 17.4662C88.1858 17.0596 88.0978 16.7015 87.9278 16.392C87.7518 16.0825 87.5152 15.8367 87.2178 15.6546C86.9204 15.4847 86.5866 15.3967 86.2164 15.3906C85.8341 15.3967 85.4972 15.4847 85.2059 15.6546C84.9086 15.8367 84.6749 16.0825 84.505 16.392ZM79.0611 14.8203V15.3483C78.5634 15.3544 78.1325 15.4363 77.7684 15.5941C77.3982 15.7519 77.1129 15.9825 76.9127 16.286C76.7063 16.5894 76.6031 16.9566 76.6031 17.3875C76.6031 17.8305 76.7063 18.2037 76.9127 18.5072C77.119 18.8046 77.4042 19.0352 77.7684 19.1991C78.1386 19.3508 78.5665 19.4297 79.052 19.4357H79.0611V20.1185H79.6892V19.4357H79.7074C80.1929 19.4297 80.6208 19.3477 80.991 19.1899C81.3612 19.0322 81.6495 18.8015 81.8558 18.4981C82.0622 18.1946 82.1684 17.8244 82.1744 17.3875C82.1684 16.9626 82.0652 16.5985 81.8649 16.2951C81.6525 15.9916 81.3612 15.758 80.991 15.5941C80.6208 15.4363 80.1869 15.3544 79.6892 15.3483V14.8203H79.0611ZM79.0611 15.9375C78.4907 15.9375 78.0507 16.0649 77.7411 16.3198C77.4256 16.5747 77.2647 16.9298 77.2587 17.3849C77.2647 17.7127 77.3406 17.9827 77.4863 18.1951C77.6319 18.4136 77.8383 18.5775 78.1053 18.6867C78.3723 18.796 78.6879 18.8506 79.052 18.8506H79.0611V15.9375ZM79.6983 15.9375C80.2749 15.9375 80.7209 16.0649 81.0365 16.3198C81.346 16.5747 81.5038 16.9298 81.5099 17.3849C81.5038 17.8705 81.34 18.2376 81.0183 18.4865C80.7027 18.7292 80.2627 18.8506 79.6983 18.8506H79.6892V15.9375H79.6983ZM97.8688 15.9128L97.9143 14.875H100.964V19.4631H101.665V21.0107H101.073V20.0548H97.0495V21.0107H96.4578V19.4631H97.0131C97.092 19.3782 97.1891 19.193 97.3044 18.9078C97.4197 18.6226 97.532 18.2311 97.6412 17.7335C97.7504 17.2419 97.8263 16.635 97.8688 15.9128ZM98.2513 17.9233C98.3423 17.4984 98.4121 16.9886 98.4607 16.3939L98.5244 15.4653H100.336V19.4617H97.7051C97.7779 19.3828 97.8629 19.2129 97.96 18.9519C98.0571 18.697 98.1542 18.3541 98.2513 17.9233ZM94.2092 17.7153H91.3598V20.0548H90.7317V14.875H91.3598V17.1235H94.2092V14.875H94.8373V20.0548H94.2092V17.7153Z" fill="#A4A6A8"/>
</svg>
