<svg width="182" height="48" viewBox="0 0 182 48" fill="none" xmlns="http://www.w3.org/2000/svg">
<rect x="18.6658" y="11.6406" width="13.7455" height="24.7025" fill="#FF5F00"/>
<path d="M19.5384 23.9962C19.5346 19.1766 21.7471 14.6229 25.5384 11.6471C19.0976 6.58533 9.84834 7.32263 4.29075 13.3409C-1.26684 19.3591 -1.26684 28.6377 4.29075 34.6559C9.84834 40.6742 19.0976 41.4115 25.5384 36.3497C21.7459 33.373 19.5333 28.8174 19.5384 23.9962Z" fill="#EB001B"/>
<path d="M50.9565 24.0023C50.9564 30.0168 47.5221 35.5034 42.1122 38.1317C36.7023 40.76 30.2666 40.0687 25.5383 36.3514C29.328 33.3731 31.5406 28.82 31.5406 24.0001C31.5406 19.1802 29.328 14.6271 25.5383 11.6488C30.2672 7.931 36.7039 7.24004 42.1141 9.86946C47.5244 12.4989 50.958 17.9869 50.9565 24.0023Z" fill="#F79E1B"/>
<path fill-rule="evenodd" clip-rule="evenodd" d="M50.4548 33.1211V34.114L50.3413 34.1211V33.3693L50.1711 34.0147H50.0533L49.8831 33.3693V34.114H49.7915V33.1211H49.953L50.1362 33.8303L50.3195 33.1211H50.4548ZM49.4468 33.2913V34.114L49.3464 34.1211V33.2984H49.1414V33.1282H49.6519V33.2913H49.4468Z" fill="#F79E1B"/>
<path fill-rule="evenodd" clip-rule="evenodd" d="M175.992 24.0617V14.6406H173.719V20.1039C172.932 19.089 171.703 18.5181 170.42 18.5723C167.492 18.5723 165.184 20.8675 165.184 24.0574C165.184 27.2472 167.479 29.5424 170.42 29.5424C171.703 29.5966 172.932 29.0257 173.719 28.0108V29.2763H175.992V24.0617ZM108.229 18.8399H111.943L111.939 20.917H108.225V25.6384C108.225 26.6857 108.6 27.3839 109.735 27.3839C110.444 27.3608 111.137 27.1581 111.747 26.7948L112.401 28.741C111.549 29.2717 110.564 29.5515 109.56 29.5482C106.872 29.5482 105.934 28.1039 105.934 25.6777V20.917H103.813V18.8399H105.934V15.6719H108.229V18.8399ZM77.9807 22.7408V29.2862H75.681V23.4739C75.681 21.7022 74.8956 20.7204 73.3857 20.7204C71.8759 20.7204 70.8287 21.6804 70.8287 23.4957V29.2862H68.5465V23.4739C68.5465 21.7022 67.8265 20.7204 66.273 20.7204C64.7196 20.7204 63.7159 21.6804 63.7159 23.4957V29.2862H61.4207V18.8309H63.6941V20.14C64.3658 19.1183 65.5274 18.5276 66.7487 18.5866C68.1529 18.527 69.4772 19.2403 70.2003 20.4455C70.9936 19.2037 72.3996 18.4915 73.8701 18.5866C76.4054 18.6084 77.9807 20.2709 77.9807 22.7408ZM131.33 18.5755C130.201 18.5426 129.145 19.1304 128.577 20.1072V18.8374H126.325V29.2839H128.599V23.4279C128.599 21.6824 129.341 20.7399 130.829 20.7399C131.315 20.7329 131.799 20.8218 132.251 21.0017L132.949 18.8592C132.43 18.6733 131.882 18.5774 131.33 18.5755ZM97.7566 18.5751C99.2529 18.5226 100.733 18.9013 102.02 19.666L101.042 21.5075C100.051 20.9377 98.9306 20.6298 97.7872 20.6129C96.5392 20.6129 95.7974 21.0711 95.7974 21.8347C95.7974 22.5329 96.5872 22.7293 97.569 22.8602L98.6381 23.0129C100.907 23.3402 102.286 24.3002 102.286 26.1373C102.286 28.1227 100.536 29.5453 97.521 29.5453C95.9062 29.5896 94.3198 29.1139 92.9959 28.1882L94.0301 26.4209C95.0377 27.1673 96.2677 27.5517 97.521 27.5118C99.0745 27.5118 99.9035 27.0493 99.9035 26.242C99.9035 25.6529 99.3101 25.3257 98.0665 25.1511L96.9974 24.9984C94.6585 24.6711 93.393 23.6238 93.393 21.9177C93.393 19.8449 95.1123 18.5751 97.7566 18.5751ZM162.901 18.5755C161.772 18.5426 160.716 19.1304 160.148 20.1072V18.8374H157.896V29.2839H160.17V23.4279C160.17 21.6824 160.912 20.7399 162.4 20.7399C162.886 20.7329 163.37 20.8218 163.822 21.0017L164.52 18.8592C164.001 18.6733 163.453 18.5774 162.901 18.5755ZM139.198 29.5481C135.834 29.5481 133.626 27.231 133.626 24.063V24.0543C133.626 20.8863 135.834 18.5692 139.198 18.5692C140.562 18.5017 141.903 18.9469 142.955 19.8172L141.864 21.6543C141.078 21.0558 140.12 20.7268 139.133 20.7161C137.322 20.7379 135.987 22.0514 135.987 24.0586C135.987 26.0659 137.317 27.4012 139.133 27.4012C140.12 27.3905 141.078 27.0615 141.864 26.463L142.955 28.3001C141.903 29.1704 140.562 29.6156 139.198 29.5481ZM154.912 24.0603V18.8239H152.638V20.0938C151.852 19.0788 150.622 18.508 149.339 18.5621C146.411 18.5621 144.103 20.8574 144.103 24.0472C144.103 27.237 146.398 29.5323 149.339 29.5323C150.622 29.5864 151.852 29.0156 152.638 28.0007V29.2661H154.912V24.0603ZM149.623 20.7191C147.655 20.7191 146.455 22.2246 146.455 24.0617C146.455 25.8944 147.655 27.4042 149.623 27.4042C151.504 27.4042 152.769 25.9599 152.769 24.0617C152.769 22.1635 151.504 20.7191 149.623 20.7191ZM119.025 18.5747C115.97 18.5747 113.824 20.8045 113.824 24.0598C113.824 27.3805 116.053 29.5449 119.178 29.5449C120.738 29.5995 122.263 29.0776 123.463 28.0787L122.35 26.3943C121.482 27.0887 120.407 27.4727 119.296 27.4852C117.829 27.4852 116.498 26.8089 116.171 24.9281H123.93C123.952 24.6445 123.973 24.3609 123.973 24.0554C123.973 20.8001 121.94 18.5703 119.012 18.5703L119.025 18.5747ZM121.626 23.1453C121.386 21.5272 120.449 20.611 118.984 20.6101C117.366 20.611 116.45 21.6362 116.211 23.1453H121.626ZM178.912 28.373C178.83 28.3388 178.743 28.321 178.655 28.3206H178.658C178.563 28.3184 178.468 28.3362 178.379 28.373C178.218 28.4393 178.09 28.5662 178.021 28.7264C177.951 28.8909 177.951 29.0769 178.021 29.2414C178.13 29.4907 178.378 29.6506 178.65 29.6472C178.74 29.6479 178.829 29.6301 178.912 29.5948C178.991 29.5605 179.064 29.5117 179.125 29.4508C179.186 29.3908 179.235 29.3197 179.269 29.2414C179.34 29.077 179.34 28.8908 179.269 28.7264C179.235 28.648 179.186 28.5769 179.125 28.517C179.064 28.4559 178.991 28.407 178.912 28.373ZM178.657 29.4989C178.724 29.4989 178.789 29.4855 178.851 29.4595C178.911 29.4335 178.965 29.3965 179.012 29.3504C179.214 29.1478 179.214 28.82 179.012 28.6173C178.966 28.571 178.911 28.534 178.851 28.5083C178.787 28.4815 178.719 28.4682 178.65 28.469C178.579 28.468 178.51 28.4814 178.445 28.5083C178.287 28.5757 178.172 28.7169 178.139 28.8855C178.106 29.0541 178.158 29.2281 178.279 29.3504C178.327 29.3971 178.383 29.4342 178.445 29.4595C178.512 29.4875 178.585 29.501 178.657 29.4989ZM178.657 29.4989L178.65 29.4988H178.659L178.657 29.4989ZM178.872 28.721C178.819 28.6826 178.754 28.6641 178.689 28.6687L178.405 28.673V29.2839H178.536V29.0527H178.597L178.785 29.2839H178.942L178.741 29.0527C178.795 29.0486 178.845 29.0272 178.885 28.9916C178.92 28.9589 178.939 28.9128 178.938 28.865C178.94 28.8093 178.916 28.7558 178.872 28.721ZM178.536 28.7847V28.9505H178.689C178.716 28.9584 178.745 28.9584 178.772 28.9505C178.792 28.9368 178.804 28.9137 178.802 28.8894C178.804 28.8651 178.792 28.842 178.772 28.8283C178.745 28.8204 178.716 28.8204 178.689 28.8283L178.536 28.7847ZM170.712 20.7191C168.744 20.7191 167.544 22.2246 167.544 24.0617C167.544 25.8944 168.744 27.4042 170.712 27.4042C172.593 27.4042 173.858 25.9599 173.858 24.0617C173.858 22.1635 172.593 20.7191 170.712 20.7191ZM90.7879 24.0627V18.8264H88.5145V20.0962C87.728 19.09 86.5047 18.5247 85.2287 18.5776C82.3007 18.5776 79.9923 20.8729 79.9923 24.0627C79.9923 27.2525 82.2876 29.5478 85.2287 29.5478C86.5115 29.602 87.7411 29.0311 88.5276 28.0162V29.2816H90.801L90.7879 24.0627ZM85.4992 20.7191C83.5312 20.7191 82.3312 22.2246 82.3312 24.0617C82.3312 25.8988 83.5312 27.4042 85.4992 27.4042C87.38 27.4042 88.6454 25.9599 88.6454 24.0617C88.6454 22.1635 87.38 20.7191 85.4992 20.7191Z" fill="white"/>
</svg>
