<svg width="73" height="73" viewBox="0 0 73 73" fill="none" xmlns="http://www.w3.org/2000/svg">
<path fill-rule="evenodd" clip-rule="evenodd" d="M5.1432 9.23306H6.5882C8.1882 9.23306 8.9902 8.52306 8.9902 7.10206C8.9902 5.68106 8.1882 4.97206 6.5882 4.97206H5.1432V9.23306ZM5.1432 18.4841H0.783203V1.39006H7.7222C9.6052 1.39006 11.0472 1.88806 12.0472 2.88406C13.0472 3.88206 13.5482 5.29006 13.5482 7.10206C13.5482 8.91506 13.0482 10.3221 12.0472 11.3191C11.0472 12.3171 9.6052 12.8151 7.7222 12.8151H5.1432V18.4851V18.4841ZM32.2742 9.02906H33.0972C33.9572 9.02906 34.6172 8.84806 35.0762 8.48506C35.5362 8.12306 35.7652 7.60006 35.7652 6.92206C35.7652 6.24106 35.5352 5.71906 35.0762 5.35706C34.6162 4.99406 33.9562 4.81206 33.0962 4.81206H32.2742V9.03006V9.02906ZM41.8582 18.4841H36.4312L32.2742 11.9091V18.4841H27.9162V1.38906H34.6972C35.6332 1.38906 36.4472 1.52906 37.1442 1.80806C37.8402 2.08806 38.4142 2.47006 38.8672 2.95406C39.3191 3.43702 39.6672 4.0074 39.8902 4.63006C40.1202 5.26606 40.2342 5.94606 40.2342 6.67206C40.2342 7.97206 39.9272 9.02506 39.3132 9.83406C38.6962 10.6441 37.7892 11.1911 36.5872 11.4791L41.8582 18.4841ZM58.0152 9.93606C58.0152 10.6161 58.1402 11.2441 58.3942 11.8181C58.6352 12.378 58.9819 12.8863 59.4152 13.3151C59.8452 13.7381 60.3462 14.0671 60.9172 14.3011C61.4872 14.5351 62.0922 14.6511 62.7292 14.6511C63.9694 14.6571 65.1626 14.1772 66.0532 13.3141C66.4925 12.8877 66.8441 12.3794 67.0882 11.8181C67.3382 11.2441 67.4662 10.6161 67.4662 9.93606C67.4722 9.2893 67.3434 8.64837 67.0882 8.05406C66.5966 6.92537 65.6822 6.03431 64.5412 5.57206C63.9661 5.3375 63.3503 5.21857 62.7292 5.22206C62.0922 5.22206 61.4882 5.33806 60.9172 5.57206C60.3569 5.79932 59.8466 6.13431 59.4152 6.55806C58.9852 6.98106 58.6452 7.48106 58.3942 8.05406C58.1373 8.64788 58.0082 9.28909 58.0152 9.93606ZM53.4572 9.93606C53.4572 8.66606 53.6872 7.48406 54.1462 6.38806C54.5899 5.31625 55.2395 4.34186 56.0582 3.52006C56.8936 2.69066 57.8882 2.03891 58.9822 1.60406C60.1172 1.14406 61.3652 0.914062 62.7292 0.914062C64.0782 0.914062 65.3232 1.14406 66.4652 1.60406C67.5658 2.0387 68.5676 2.69029 69.4112 3.52006C70.2359 4.33943 70.8898 5.31424 71.3352 6.38806C71.7952 7.48406 72.0242 8.66606 72.0242 9.93606C72.0242 11.2061 71.7942 12.3901 71.3342 13.4861C70.8891 14.5592 70.2355 15.5333 69.4112 16.3521C68.5684 17.1828 67.5663 17.8345 66.4652 18.2681C65.3232 18.7281 64.0782 18.9581 62.7292 18.9581C61.3652 18.9581 60.1172 18.7281 58.9822 18.2681C57.8877 17.8343 56.8928 17.1824 56.0582 16.3521C55.2394 15.5307 54.5898 14.5566 54.1462 13.4851C53.6862 12.3901 53.4562 11.2061 53.4562 9.93506" fill="#374146"/>
<path fill-rule="evenodd" clip-rule="evenodd" d="M37.0668 66.4964V72.8974H32.7088V66.4964H27.3828V62.1094H42.3928V66.4964H37.0668Z" fill="#EA5A0A"/>
<path fill-rule="evenodd" clip-rule="evenodd" d="M32.7084 60.2471H37.0664V55.8041H32.7084V60.2471ZM13.5814 34.3101C12.5734 33.0551 11.3284 32.4281 9.84536 32.4281C9.24121 32.4222 8.64211 32.5386 8.08411 32.7703C7.5261 33.0019 7.02072 33.3441 6.59836 33.7761C6.19836 34.1921 5.88436 34.6891 5.65536 35.2621C5.42201 35.8535 5.30454 36.4843 5.30936 37.1201C5.30936 37.8011 5.42536 38.4281 5.65536 39.0031C5.88536 39.5781 6.20336 40.0761 6.61136 40.4991C7.01936 40.9221 7.49636 41.2571 8.04436 41.4971C8.60541 41.7413 9.21149 41.865 9.82336 41.8601C11.2164 41.8601 12.4694 41.2571 13.5814 40.0461V45.3061L13.1374 45.4641C12.5291 45.6885 11.9046 45.8663 11.2694 45.9961C10.7052 46.1081 10.1315 46.165 9.55636 46.1661C8.41472 46.1692 7.28418 45.942 6.23236 45.4981C5.18419 45.0606 4.23217 44.4215 3.43036 43.6171C2.60806 42.7868 1.94837 41.81 1.48536 40.7371C0.99636 39.6271 0.75136 38.4141 0.75136 37.0991C0.75136 35.7831 0.991359 34.5791 1.47336 33.4831C1.93041 32.4229 2.58738 31.4608 3.40836 30.6491C5.05567 29.0313 7.2715 28.1237 9.58036 28.1211C10.2464 28.1211 10.9024 28.1921 11.5474 28.3361C12.1914 28.4801 12.8704 28.7031 13.5814 29.0061V34.3101ZM31.7404 35.1941H38.0334V28.5971H42.3914V45.6901H38.0334V38.6411H31.7414V45.6911H27.3834V28.5961H31.7414L31.7404 35.1941ZM64.6974 39.3431L62.7404 33.6511L60.7834 39.3431H64.6974ZM65.8544 42.7211H59.6264L58.6274 45.6911H53.9804L60.3614 28.5961H65.1214L71.5014 45.6911H66.8544L65.8544 42.7211ZM4.55436 63.4441H5.37636C6.23536 63.4441 6.89636 63.2621 7.35636 62.8991C7.81536 62.5351 8.04436 62.0151 8.04436 61.3351C8.04436 60.6551 7.81436 60.1331 7.35636 59.7711C6.89636 59.4081 6.23536 59.2261 5.37636 59.2261H4.55436V63.4441ZM14.1374 72.8981H8.71036L4.55336 66.3231V72.8981H0.193359V55.8031H6.97636C7.91036 55.8031 8.72636 55.9431 9.42336 56.2221C10.1194 56.5021 10.6934 56.8841 11.1444 57.3671C11.5968 57.8507 11.9456 58.4217 12.1694 59.0451C12.4016 59.7003 12.518 60.391 12.5134 61.0861C12.5134 62.3861 12.2054 63.4391 11.5904 64.2481C10.9754 65.0581 10.0674 65.6051 8.86636 65.8931L14.1364 72.8981H14.1374ZM60.5504 64.6901L54.4344 55.8031H59.6384L62.7524 60.4731L65.8424 55.8031H71.0464L64.9084 64.6911V72.8981H60.5504V64.6901Z" fill="white"/>
</svg>
