<svg width="164" height="14" viewBox="0 0 164 14" fill="none" xmlns="http://www.w3.org/2000/svg">
<path d="M8.71552 3.92992H7.48355C7.05109 3.01092 6.06804 2.31525 4.60028 2.31525C2.81787 2.31525 1.12715 3.62792 1.12715 6.09608C1.12715 8.23592 2.59507 9.90308 4.66584 9.90308C6.1336 9.90308 7.14277 9.18108 7.61466 8.11775H8.84664C8.07341 9.75875 6.802 10.8744 4.61342 10.8744C1.86111 10.8744 0 8.82658 0 6.08292C0 3.33925 2.00521 1.34375 4.61342 1.34375C7.07721 1.34375 8.23065 2.78775 8.71552 3.92992Z" fill="#7B878F"/>
<path fill-rule="evenodd" clip-rule="evenodd" d="M9.25685 9.65287H9.09961V12.6199H10.1349V10.585H15.3119V12.6199H16.3472V9.65287H15.3773V4.29688H11.0261L10.7902 6.84354C10.5805 9.07538 9.9384 9.65287 9.25685 9.65287ZM11.9305 5.22888H14.342V9.65288H10.9344C11.4193 9.10155 11.6553 8.32705 11.7994 6.73872L11.9305 5.22888Z" fill="#7B878F"/>
<path fill-rule="evenodd" clip-rule="evenodd" d="M22.9317 7.73544C22.9447 7.66977 22.9579 7.47277 22.9579 7.35477C22.9579 5.97644 22.1322 4.0991 19.8518 4.08594C17.9514 4.08594 16.7324 5.62194 16.7324 7.35477C16.7324 9.3106 18.0694 10.8073 20.0615 10.8073C21.5424 10.8073 22.4204 9.9146 22.8399 9.12694H21.6474C21.241 9.6126 20.7823 9.88827 20.0353 9.88827C18.8558 9.88827 17.8072 8.8776 17.8072 7.73544H22.9317ZM21.8702 6.86891H17.8203C17.912 5.91058 18.6591 4.99158 19.8518 4.99158C20.9921 4.99158 21.7652 5.88441 21.8702 6.86891Z" fill="#7B878F"/>
<path d="M24.9126 4.29688H29.644V10.585H28.6085V5.22887H25.8825L25.5679 8.70771C25.4367 10.1124 25.0174 10.6637 23.8903 10.6637C23.6938 10.6637 23.5102 10.6375 23.3398 10.5982V9.75804C23.4317 9.78421 23.6543 9.81038 23.7854 9.81038C24.2835 9.81038 24.48 9.46904 24.5455 8.70771L24.9126 4.29688Z" fill="#7B878F"/>
<path fill-rule="evenodd" clip-rule="evenodd" d="M36.3251 10.5841H37.3604V4.29594H36.3251V5.20177H36.312C35.8795 4.68977 35.2111 4.08594 34.0708 4.08594C32.1968 4.08594 30.7812 5.49044 30.7812 7.43344C30.7812 9.48144 32.3016 10.8073 34.0053 10.8073C35.067 10.8073 35.8403 10.2953 36.2989 9.74394H36.3251V10.5841ZM36.4168 7.47274C36.4168 8.89058 35.3291 9.88824 34.1495 9.88824C32.6029 9.88824 31.856 8.64124 31.856 7.43341C31.856 6.22558 32.6029 4.99158 34.1756 4.99158C35.4078 4.99158 36.4168 5.97624 36.4168 7.47274Z" fill="#7B878F"/>
<path d="M44.418 10.585H43.3827V7.73638H39.9359V10.585H38.9004V4.29688H39.9359V6.86987H43.3827V4.29688H44.418V10.585Z" fill="#7B878F"/>
<path fill-rule="evenodd" clip-rule="evenodd" d="M52.267 7.43344C52.267 5.52994 50.8646 4.08594 48.9118 4.08594C47.0246 4.08594 45.5566 5.4906 45.5566 7.43344C45.5566 9.3371 47.0114 10.8073 48.9118 10.8073C50.8516 10.8073 52.267 9.28444 52.267 7.43344ZM51.1924 7.43346C51.1924 8.81179 50.2356 9.86213 48.9118 9.86213C47.7059 9.86213 46.6313 8.85129 46.6313 7.43346C46.6313 6.04196 47.575 5.01813 48.9118 5.01813C50.288 5.01813 51.1924 6.10763 51.1924 7.43346Z" fill="#7B878F"/>
<path fill-rule="evenodd" clip-rule="evenodd" d="M59.292 4.29688H56.9199V10.585H59.5672C61.022 10.585 61.8608 9.82354 61.8608 8.70771C61.8608 8.02504 61.4546 7.36871 60.3668 7.15871C61.0876 6.93554 61.3628 6.39738 61.3628 5.88538C61.3628 4.84821 60.5633 4.29688 59.292 4.29688ZM57.916 5.16339V6.86989H59.0824C59.9212 6.86989 60.3405 6.55489 60.3405 5.99022C60.3405 5.42589 59.9081 5.16339 59.2265 5.16339H57.916ZM57.916 7.73639V9.71872H59.6329C60.4585 9.71872 60.8254 9.23289 60.8254 8.72089C60.8254 8.09072 60.4192 7.73639 59.4756 7.73639H57.916Z" fill="#7B878F"/>
<path fill-rule="evenodd" clip-rule="evenodd" d="M68.3352 0C66.9021 0 65.7148 1.0005 65.7148 2.37817C65.7148 3.3785 66.4678 4.29217 67.3219 4.55317C66.7573 5.04617 66.323 5.95983 66.323 7.1055C66.323 9.208 67.9154 10.8322 70.0291 10.8322C72.1862 10.8322 73.7352 9.15 73.7352 7.1055C73.7352 5.00283 72.2007 3.40767 70.0291 3.40767H68.842C68.0746 3.40767 67.3653 3.17567 67.3653 2.37817C67.3653 1.7835 67.7998 1.45 68.3352 1.45C68.793 1.45 69.2258 1.66008 69.6888 1.88487C70.2215 2.14346 70.7943 2.4215 71.4914 2.4215C73.1416 2.4215 74.1117 1.3775 74.1117 0H72.4613C72.4613 0.594333 72.027 0.9715 71.4914 0.9715C71.0913 0.9715 70.6705 0.772204 70.2101 0.554144C69.654 0.290759 69.0401 0 68.3352 0ZM72.0994 7.10549C72.0994 8.39599 71.2598 9.38199 70.0291 9.38199C68.9145 9.38199 67.9735 8.43949 67.9735 7.10549C67.9735 5.81482 68.7842 4.84332 70.0291 4.84332C71.3177 4.84332 72.0994 5.87282 72.0994 7.10549Z" fill="white"/>
<path fill-rule="evenodd" clip-rule="evenodd" d="M77.4878 6.30642H76.4456V3.63825H74.8242V10.5842H76.4456V7.59708H77.4446C77.6616 9.45325 79.1383 10.8307 81.0928 10.8307C83.2499 10.8307 84.7988 9.14858 84.7988 7.10408C84.7988 5.00142 83.2644 3.40625 81.0928 3.40625C79.2541 3.40625 77.8208 4.59525 77.4878 6.30642ZM83.1485 7.10409C83.1485 8.39459 82.3087 9.38059 81.0927 9.38059C79.9634 9.38059 79.0225 8.43809 79.0225 7.10409C79.0225 5.81342 79.8478 4.84192 81.0927 4.84192C82.3668 4.84192 83.1485 5.87142 83.1485 7.10409Z" fill="white"/>
<path fill-rule="evenodd" clip-rule="evenodd" d="M87.2441 3.63921H85.666V13.9929H87.2586V9.74421H87.302C87.7652 10.3242 88.5182 10.8319 89.5894 10.8319C91.457 10.8319 92.9917 9.30921 92.9917 7.13404C92.9917 4.90087 91.457 3.42188 89.6763 3.42188C88.4167 3.42188 87.7364 4.00171 87.2875 4.52387H87.2441V3.63921ZM87.1862 7.14856C87.1862 5.7564 88.0982 4.8429 89.2275 4.8429C90.6461 4.8429 91.3267 5.9594 91.3267 7.11956C91.3267 8.26506 90.6317 9.42506 89.2419 9.42506C88.1271 9.42506 87.1862 8.49706 87.1862 7.14856Z" fill="white"/>
<path fill-rule="evenodd" clip-rule="evenodd" d="M101.141 7.10408C101.141 5.00142 99.6062 3.40625 97.4346 3.40625C95.3355 3.40625 93.7285 4.95792 93.7285 7.10408C93.7285 9.20658 95.3209 10.8307 97.4346 10.8307C99.5917 10.8307 101.141 9.14858 101.141 7.10408ZM99.5049 7.10409C99.5049 8.39459 98.6653 9.38059 97.4347 9.38059C96.32 9.38059 95.379 8.43809 95.379 7.10409C95.379 5.81342 96.1897 4.84192 97.4347 4.84192C98.7232 4.84192 99.5049 5.87142 99.5049 7.10409Z" fill="white"/>
<path fill-rule="evenodd" clip-rule="evenodd" d="M104.251 0C102.818 0 101.631 1.0005 101.631 2.37817C101.631 3.3785 102.384 4.29217 103.238 4.55317C102.673 5.04617 102.239 5.95983 102.239 7.1055C102.239 9.208 103.831 10.8322 105.945 10.8322C108.102 10.8322 109.651 9.15 109.651 7.1055C109.651 5.00283 108.117 3.40767 105.945 3.40767H104.758C103.99 3.40767 103.281 3.17567 103.281 2.37817C103.281 1.7835 103.715 1.45 104.251 1.45C104.709 1.45 105.142 1.66008 105.605 1.88486C106.137 2.14345 106.71 2.4215 107.407 2.4215C109.058 2.4215 110.028 1.3775 110.028 0H108.377C108.377 0.594333 107.943 0.9715 107.407 0.9715C107.007 0.9715 106.586 0.77219 106.126 0.554122C105.57 0.290742 104.956 0 104.251 0ZM108.015 7.10549C108.015 8.39599 107.176 9.38199 105.945 9.38199C104.83 9.38199 103.889 8.43949 103.889 7.10549C103.889 5.81482 104.7 4.84332 105.945 4.84332C107.234 4.84332 108.015 5.87282 108.015 7.10549Z" fill="white"/>
<path fill-rule="evenodd" clip-rule="evenodd" d="M113.402 6.30642H112.36V3.63825H110.738V10.5842H112.36V7.59708H113.359C113.576 9.45325 115.053 10.8307 117.007 10.8307C119.164 10.8307 120.713 9.14858 120.713 7.10408C120.713 5.00142 119.179 3.40625 117.007 3.40625C115.168 3.40625 113.735 4.59525 113.402 6.30642ZM119.063 7.10409C119.063 8.39459 118.223 9.38059 117.007 9.38059C115.878 9.38059 114.937 8.43809 114.937 7.10409C114.937 5.81342 115.762 4.84192 117.007 4.84192C118.281 4.84192 119.063 5.87142 119.063 7.10409Z" fill="white"/>
<path fill-rule="evenodd" clip-rule="evenodd" d="M123.158 3.63921H121.58V13.9929H123.172V9.74421H123.216C123.679 10.3242 124.432 10.8319 125.503 10.8319C127.371 10.8319 128.905 9.30921 128.905 7.13404C128.905 4.90087 127.371 3.42188 125.59 3.42188C124.331 3.42188 123.65 4.00171 123.201 4.52387H123.158V3.63921ZM123.1 7.14856C123.1 5.7564 124.012 4.8429 125.141 4.8429C126.56 4.8429 127.241 5.9594 127.241 7.11956C127.241 8.26506 126.546 9.42506 125.156 9.42506C124.041 9.42506 123.1 8.49706 123.1 7.14856Z" fill="white"/>
<path fill-rule="evenodd" clip-rule="evenodd" d="M137.057 7.10408C137.057 5.00142 135.522 3.40625 133.351 3.40625C131.251 3.40625 129.645 4.95792 129.645 7.10408C129.645 9.20658 131.237 10.8307 133.351 10.8307C135.508 10.8307 137.057 9.14858 137.057 7.10408ZM135.421 7.10409C135.421 8.39459 134.581 9.38059 133.351 9.38059C132.236 9.38059 131.295 8.43809 131.295 7.10409C131.295 5.81342 132.106 4.84192 133.351 4.84192C134.639 4.84192 135.421 5.87142 135.421 7.10409Z" fill="white"/>
<path d="M147.415 5.9106H146.262C146.012 5.3856 145.462 4.9916 144.584 4.9916C143.391 4.9916 142.356 5.8056 142.356 7.43344C142.356 8.85127 143.326 9.88827 144.649 9.88827C145.632 9.88827 146.104 9.37644 146.353 8.85127H147.507C147.179 9.78327 146.34 10.8073 144.636 10.8073C142.697 10.8073 141.281 9.41577 141.281 7.42044C141.281 5.58244 142.566 4.08594 144.584 4.08594C146.38 4.08594 147.205 5.1886 147.415 5.9106Z" fill="#7B878F"/>
<path fill-rule="evenodd" clip-rule="evenodd" d="M163.128 4.93199C163.128 2.61652 161.49 1.03516 159.459 1.03516C158.604 1.03516 157.788 1.32889 157.115 1.85694C156.442 1.32859 155.627 1.03516 154.773 1.03516C152.741 1.03516 151.104 2.61652 151.104 4.93199C151.104 6.46624 152.104 8.01817 153.756 9.59352C154.313 10.1254 154.912 10.6252 155.517 11.082C155.897 11.3686 156.21 11.5872 156.419 11.7245L156.659 11.8818C156.936 12.0633 157.295 12.0634 157.572 11.8819L157.812 11.7247C158.022 11.5872 158.335 11.3686 158.715 11.082C159.32 10.6252 159.919 10.1254 160.476 9.59352C162.128 8.01817 163.128 6.46624 163.128 4.93199ZM161.462 4.93195C161.462 5.87943 160.673 7.1022 159.326 8.38755C158.543 9.13403 157.736 9.76048 157.116 10.1851C156.496 9.76056 155.688 9.13408 154.906 8.38755C153.559 7.1022 152.77 5.87943 152.77 4.93195C152.77 3.55031 153.649 2.70178 154.773 2.70178C155.414 2.70178 156.025 3.00306 156.471 3.54622C156.805 3.9525 157.427 3.95227 157.76 3.54574C158.204 3.00376 158.817 2.70178 159.459 2.70178C160.583 2.70178 161.462 3.55031 161.462 4.93195Z" fill="#F0463C"/>
</svg>
