<svg width="144" height="48" viewBox="0 0 144 48" fill="none" xmlns="http://www.w3.org/2000/svg">
<path fill-rule="evenodd" clip-rule="evenodd" d="M43.9162 7.35156H23.6467C21.594 7.35156 19.7602 8.63532 19.0581 10.5643L11.2049 32.1409C10.5002 34.0642 8.67002 35.3438 6.62097 35.3438H26.8905C28.9432 35.3438 30.777 34.0601 31.4791 32.1311L39.3323 10.5535C40.0375 8.63067 41.8672 7.35156 43.9162 7.35156Z" fill="#C4A16E"/>
<path fill-rule="evenodd" clip-rule="evenodd" d="M17.6247 10.0419C18.5427 7.51939 20.9627 5.8253 23.6466 5.8253H25.6698L26.8382 2.61461C27.4141 1.0447 28.9085 0 30.5813 0H14.0275C12.351 0 10.8535 1.04833 10.2802 2.62392L3.86661 20.2447C3.29122 21.8156 1.79634 22.8609 0.122437 22.8609H12.959L17.6247 10.0419Z" fill="#DBC8A7"/>
<path fill-rule="evenodd" clip-rule="evenodd" d="M49.519 17.0409H50.126C50.5374 17.0409 50.9166 17.0973 51.2628 17.2101C51.609 17.3239 51.907 17.4916 52.1575 17.7146C52.4074 17.9371 52.6014 18.2103 52.738 18.5316C52.8757 18.854 52.944 19.2219 52.944 19.6322C52.944 20.0508 52.8684 20.4223 52.7178 20.7483C52.5667 21.0738 52.3629 21.3501 52.1062 21.5762C51.8491 21.8023 51.5484 21.9736 51.2064 22.0905C50.8633 22.2069 50.5032 22.2649 50.126 22.2649H49.519V23.1601H47.9874V22.2649H47.38C46.9691 22.2649 46.5898 22.2085 46.2437 22.0957C45.8975 21.9824 45.601 21.8142 45.3542 21.5917C45.1074 21.3687 44.9154 21.096 44.7783 20.7742C44.6407 20.4518 44.5729 20.0849 44.5729 19.6741C44.5729 19.255 44.6479 18.8835 44.799 18.5575C44.9496 18.232 45.154 17.9557 45.4111 17.7296C45.6678 17.5035 45.9663 17.3327 46.3058 17.2152C46.6447 17.0988 47.0033 17.0409 47.38 17.0409H47.9874V16.125H49.519V17.0409ZM47.4317 18.3676C47.0002 18.3676 46.6706 18.484 46.4444 18.7174C46.2183 18.9502 46.105 19.2653 46.105 19.6638C46.105 20.0674 46.223 20.3799 46.46 20.5993C46.6964 20.8187 47.0203 20.9284 47.4317 20.9284H47.9874V18.3676H47.4317ZM50.0748 20.9382C50.5063 20.9382 50.8354 20.8218 51.062 20.5884C51.2882 20.3556 51.4015 20.0404 51.4015 19.6431C51.4015 19.2384 51.283 18.9259 51.0465 18.7065C50.81 18.4871 50.4861 18.3774 50.0748 18.3774H49.519V20.9382H50.0748Z" fill="#E4E4E3"/>
<path fill-rule="evenodd" clip-rule="evenodd" d="M59.3715 16.3977C59.8243 16.5798 60.2098 16.8318 60.529 17.1542C60.8473 17.4765 61.0961 17.8548 61.2741 18.2905C61.4527 18.7262 61.5417 19.1996 61.5417 19.715C61.5417 20.2081 61.4527 20.6728 61.2741 21.1084C61.0961 21.5436 60.8457 21.9239 60.5233 22.2499C60.2015 22.5754 59.816 22.8325 59.3664 23.0209C58.9172 23.2092 58.422 23.3039 57.8808 23.3039C57.3453 23.3039 56.8558 23.2128 56.4097 23.0317C55.9642 22.8491 55.5787 22.5981 55.2527 22.2758C54.9273 21.9534 54.6753 21.5731 54.4973 21.1343C54.3188 20.6955 54.2292 20.2215 54.2292 19.715C54.2292 19.2219 54.3188 18.7546 54.4973 18.3158C54.6753 17.877 54.9273 17.4967 55.2527 17.1749C55.5787 16.852 55.9642 16.5974 56.4097 16.408C56.8558 16.2197 57.3453 16.125 57.8808 16.125C58.422 16.125 58.9193 16.2161 59.3715 16.3977ZM56.9908 17.6783C56.7269 17.7948 56.5039 17.9521 56.3223 18.1513C56.1412 18.3505 56.002 18.5833 55.9057 18.8509C55.8095 19.1179 55.7619 19.4061 55.7619 19.715C55.7619 20.0229 55.8095 20.3126 55.9057 20.5832C56.002 20.8544 56.1427 21.0888 56.3275 21.2885C56.5127 21.4867 56.7357 21.6435 56.996 21.7557C57.2568 21.8696 57.5517 21.9255 57.8808 21.9255C58.2166 21.9255 58.5162 21.868 58.7806 21.7506C59.044 21.6352 59.2675 21.4753 59.4486 21.2735C59.6303 21.0707 59.7679 20.8363 59.8605 20.5682C59.9526 20.3012 59.9992 20.0161 59.9992 19.715C59.9992 19.3993 59.9511 19.106 59.8553 18.8348C59.7591 18.5652 59.6204 18.3298 59.4388 18.1316C59.2567 17.9319 59.0342 17.7777 58.7698 17.6685C58.5064 17.5588 58.2099 17.5035 57.8808 17.5035C57.5517 17.5035 57.2547 17.5619 56.9908 17.6783Z" fill="#E4E4E3"/>
<path fill-rule="evenodd" clip-rule="evenodd" d="M64.64 18.9643H67.6535V16.2695H69.2064V23.1608H67.6535V20.3945H64.64V23.1608H63.0872V16.2695H64.64V18.9643Z" fill="#E4E4E3"/>
<path fill-rule="evenodd" clip-rule="evenodd" d="M77.4429 21.772H78.4411V22.1937L78.307 24.6003H76.9182L76.8567 23.1608H72.1982L72.1159 24.6003H70.7173L70.635 22.204V21.7833H70.9227C71.0666 21.7833 71.2109 21.7311 71.3548 21.6281C71.4986 21.5251 71.6192 21.3642 71.7149 21.1448C71.9001 20.7329 72.0336 20.202 72.1159 19.5506C72.1982 18.8991 72.2391 18.1799 72.2391 17.3908V16.2695H77.4429V21.772ZM73.5766 20.1467C73.4597 20.84 73.3019 21.3813 73.1032 21.772H75.9004V17.648H73.7614C73.7541 18.6218 73.6925 19.4554 73.5766 20.1467Z" fill="#E4E4E3"/>
<path fill-rule="evenodd" clip-rule="evenodd" d="M50.9492 35.5074H49.3959V30.0463H46.4755V35.5074H44.9221V28.6172H50.9492V35.5074Z" fill="#E4E4E3"/>
<path fill-rule="evenodd" clip-rule="evenodd" d="M57.0394 28.7973C57.3752 28.9168 57.665 29.085 57.9082 29.3012C58.1519 29.5165 58.3387 29.7778 58.4691 30.0826C58.599 30.3873 58.6642 30.7288 58.6642 31.1055C58.6642 31.5034 58.5907 31.8579 58.4432 32.1699C58.2958 32.4824 58.0935 32.7463 57.8363 32.9621C57.5791 33.1784 57.2759 33.3434 56.9266 33.4552C56.5763 33.5696 56.1996 33.6254 55.795 33.6254H54.3964V35.5074H52.8539V28.6172H55.9181C56.3295 28.6172 56.7031 28.6772 57.0394 28.7973ZM55.795 32.2579C56.2064 32.2579 56.5287 32.1549 56.7621 31.949C56.9944 31.7441 57.1114 31.4657 57.1114 31.1159C57.1114 30.7733 57.0068 30.5012 56.7978 30.2983C56.5887 30.096 56.2752 29.9956 55.8566 29.9956H54.3964V32.2579H55.795Z" fill="#E4E4E3"/>
<path fill-rule="evenodd" clip-rule="evenodd" d="M65.2657 30.0055H61.6353V31.3016H64.8745V32.6485H61.6353V34.1186H65.4406V35.5074H60.113V28.6172H65.2657V30.0055Z" fill="#E4E4E3"/>
<path fill-rule="evenodd" clip-rule="evenodd" d="M70.6118 31.1256C70.7494 31.0102 70.8182 30.8487 70.8182 30.6433C70.8182 30.382 70.7272 30.1854 70.5456 30.0524C70.3639 29.9184 70.0669 29.8511 69.6556 29.8511C69.0113 29.8511 68.408 30.0674 67.8456 30.4995L67.0435 29.4392C67.4275 29.1107 67.8404 28.8669 68.2828 28.7091C68.7247 28.5518 69.2137 28.4727 69.7482 28.4727C70.1601 28.4727 70.5264 28.5213 70.8488 28.617C71.1711 28.7122 71.4454 28.8462 71.6715 29.018C71.8976 29.1898 72.071 29.3937 72.191 29.6302C72.3105 29.8661 72.3706 30.129 72.3706 30.4172C72.3706 30.7121 72.3105 30.9765 72.191 31.2135C72.071 31.4505 71.8909 31.6363 71.6508 31.7739V31.867C71.9799 31.9762 72.2371 32.163 72.4223 32.4269C72.607 32.6918 72.6996 33.0147 72.6996 33.3992C72.6996 33.7215 72.6365 34.0196 72.5097 34.2943C72.383 34.5681 72.1941 34.805 71.9437 35.0027C71.6937 35.2019 71.3817 35.3597 71.0081 35.4767C70.634 35.5931 70.1973 35.651 69.697 35.651C69.3953 35.651 69.1107 35.6324 68.8432 35.5946C68.5757 35.5574 68.3221 35.4969 68.082 35.4151C67.8425 35.3328 67.6127 35.2283 67.3928 35.1015C67.1739 34.9742 66.9576 34.8185 66.7455 34.6327L67.5573 33.5021C67.9144 33.7836 68.2688 33.9823 68.6217 34.0982C68.9751 34.2152 69.3679 34.2736 69.7999 34.2736C70.2522 34.2736 70.5895 34.1888 70.8125 34.0216C71.0356 33.854 71.1473 33.632 71.1473 33.3583C71.1473 32.8776 70.8348 32.638 70.2108 32.638H68.4727V31.3015H70.0462C70.2863 31.3015 70.4752 31.243 70.6118 31.1256Z" fill="#E4E4E3"/>
<path fill-rule="evenodd" clip-rule="evenodd" d="M75.7613 33.2043L79.0931 28.6172H80.4508V35.5074H78.9187V31.178L75.751 35.5074H74.239V28.6172H75.7613V33.2043Z" fill="#E4E4E3"/>
<path fill-rule="evenodd" clip-rule="evenodd" d="M88.6878 34.1186H89.6854V34.5408L89.5514 36.9474H88.1631L88.1015 35.5074H83.4425L83.3608 36.9474H81.9616L81.8799 34.5506V34.1294H82.1671C82.3114 34.1294 82.4553 34.0787 82.5991 33.9747C82.7435 33.8723 82.8635 33.7119 82.9593 33.4925C83.1445 33.0806 83.278 32.5492 83.3608 31.8977C83.4425 31.2463 83.4834 30.526 83.4834 29.7374V28.6172H88.6878V34.1186ZM84.821 32.4943C84.7041 33.1867 84.5468 33.7284 84.3481 34.1186H87.1453V29.9956H85.0062C84.999 30.9684 84.9374 31.8015 84.821 32.4943Z" fill="#E4E4E3"/>
<path fill-rule="evenodd" clip-rule="evenodd" d="M96.2969 30.0055H92.6666V31.3016H95.9057V32.6485H92.6666V34.1186H96.4718V35.5074H91.1443V28.6172H96.2969V30.0055Z" fill="#E4E4E3"/>
<path fill-rule="evenodd" clip-rule="evenodd" d="M99.6684 31.3115H102.682V28.6172H104.235V35.5074H102.682V32.7412H99.6684V35.5074H98.1156V28.6172H99.6684V31.3115Z" fill="#E4E4E3"/>
<path fill-rule="evenodd" clip-rule="evenodd" d="M111.901 30.0153H109.546V35.5074H108.014V30.0153H105.658V28.6172H111.901V30.0153Z" fill="#E4E4E3"/>
<path fill-rule="evenodd" clip-rule="evenodd" d="M117.695 30.0524C117.383 29.9386 117.035 29.8816 116.651 29.8816C116.315 29.8816 116.012 29.9349 115.741 30.041C115.47 30.1476 115.239 30.2982 115.047 30.4943C114.855 30.6888 114.708 30.9206 114.604 31.1876C114.502 31.4557 114.45 31.747 114.45 32.0621C114.45 32.3917 114.503 32.6898 114.61 32.9573C114.716 33.2243 114.865 33.4519 115.057 33.6413C115.249 33.8286 115.479 33.9761 115.746 34.0832C116.013 34.1888 116.308 34.2426 116.63 34.2426C117.021 34.2426 117.386 34.1753 117.726 34.0413C118.065 33.9083 118.369 33.7148 118.636 33.4602L119.511 34.5406C118.729 35.2811 117.741 35.651 116.548 35.651C116.013 35.651 115.524 35.5672 115.078 35.3996C114.632 35.2314 114.25 34.9913 113.931 34.6798C113.612 34.3683 113.363 33.9921 113.185 33.5534C113.007 33.1146 112.918 32.6246 112.918 32.0828C112.918 31.5897 113.005 31.1224 113.18 30.6837C113.355 30.2449 113.607 29.8609 113.936 29.5319C114.265 29.2028 114.663 28.944 115.129 28.7557C115.595 28.5668 116.123 28.4727 116.713 28.4727C117.248 28.4727 117.738 28.5534 118.183 28.7138C118.629 28.8757 119.027 29.1107 119.376 29.419L118.523 30.5393C118.283 30.3277 118.007 30.1642 117.695 30.0524Z" fill="#E4E4E3"/>
<path fill-rule="evenodd" clip-rule="evenodd" d="M122.461 31.2396L123.211 31.1578L125.155 28.6172H127.058L124.497 31.8362L127.305 35.5074H125.319L123.222 32.5663H122.461V35.5074H120.939V28.6172H122.461V31.2396Z" fill="#E4E4E3"/>
<path fill-rule="evenodd" clip-rule="evenodd" d="M130.229 33.2043L133.562 28.6172H134.919V35.5074H133.387V31.178L130.219 35.5074H128.708V28.6172H130.229V33.2043Z" fill="#E4E4E3"/>
<path fill-rule="evenodd" clip-rule="evenodd" d="M139.849 31.0755H139.952L141.32 28.6172H143.223L141.022 32.0111L143.439 35.5074H141.444L139.901 32.854H139.798L138.276 35.5074H136.292L138.708 31.9283L136.507 28.6172H138.431L139.849 31.0755Z" fill="#E4E4E3"/>
<path fill-rule="evenodd" clip-rule="evenodd" d="M50.1363 42.3635H46.4646V47.855H44.9221V40.9648H50.1363V42.3635Z" fill="#E4E4E3"/>
<path fill-rule="evenodd" clip-rule="evenodd" d="M55.7143 41.1439C56.0502 41.2644 56.3399 41.4321 56.5831 41.6484C56.8268 41.8641 57.0136 42.1255 57.144 42.4302C57.2739 42.735 57.3391 43.077 57.3391 43.4537C57.3391 43.8506 57.2656 44.2055 57.1182 44.517C56.9707 44.8301 56.7684 45.0935 56.5112 45.3092C56.254 45.5255 55.9508 45.6901 55.6016 45.8034C55.2518 45.9162 54.8745 45.9726 54.4699 45.9726H53.0713V47.855H51.5288V40.9648H54.5936C55.0044 40.9648 55.378 41.0243 55.7143 41.1439ZM54.4699 44.605C54.8813 44.605 55.2036 44.502 55.437 44.2961C55.6693 44.0907 55.7863 43.8138 55.7863 43.4635C55.7863 43.1205 55.6818 42.8483 55.4727 42.6465C55.2631 42.4437 54.9496 42.3423 54.5315 42.3423H53.0713V44.605H54.4699Z" fill="#E4E4E3"/>
<path fill-rule="evenodd" clip-rule="evenodd" d="M65.1999 47.857H63.4924L62.9682 46.4889H60.0162L59.5024 47.857H57.8259L60.6542 40.957H62.3509L65.1999 47.857ZM62.4642 45.1322L61.5489 42.5093H61.4459L60.5207 45.1322H62.4642Z" fill="#E4E4E3"/>
<path fill-rule="evenodd" clip-rule="evenodd" d="M68.156 43.6586H71.169V40.9648H72.7224V47.855H71.169V45.0883H68.156V47.855H66.6031V40.9648H68.156V43.6586Z" fill="#E4E4E3"/>
<path fill-rule="evenodd" clip-rule="evenodd" d="M80.3881 42.3635H78.0328V47.855H76.5006V42.3635H74.1453V40.9648H80.3881V42.3635Z" fill="#E4E4E3"/>
<path fill-rule="evenodd" clip-rule="evenodd" d="M86.5472 41.0925C86.9999 41.2741 87.3854 41.5261 87.7047 41.8485C88.0229 42.1698 88.2718 42.5496 88.4498 42.9847C88.6283 43.4194 88.7173 43.8949 88.7173 44.4092C88.7173 44.9034 88.6283 45.367 88.4498 45.8027C88.2718 46.2379 88.0213 46.6182 87.699 46.9442C87.3771 47.2696 86.9916 47.5268 86.542 47.7151C86.0928 47.9045 85.5977 47.9982 85.0564 47.9982C84.5209 47.9982 84.0314 47.9081 83.5854 47.7255C83.1398 47.5444 82.7544 47.2914 82.4284 46.97C82.1029 46.6477 81.8509 46.2663 81.6729 45.8275C81.4944 45.3888 81.4054 44.9169 81.4054 44.4092C81.4054 43.9151 81.4944 43.4494 81.6729 43.0106C81.8509 42.5718 82.1029 42.191 82.4284 41.8686C82.7544 41.5468 83.1398 41.2907 83.5854 41.1033C84.0314 40.914 84.5209 40.8203 85.0564 40.8203C85.5977 40.8203 86.0949 40.9103 86.5472 41.0925ZM84.1664 42.3726C83.9025 42.4901 83.6795 42.6474 83.4979 42.8461C83.3163 43.0442 83.1776 43.2781 83.0819 43.5451C82.9851 43.8132 82.9375 44.1009 82.9375 44.4092C82.9375 44.7176 82.9851 45.0074 83.0819 45.2785C83.1776 45.5492 83.3184 45.7841 83.5031 45.9828C83.6883 46.1809 83.9108 46.3372 84.1716 46.4511C84.4324 46.5628 84.7273 46.6197 85.0564 46.6197C85.3922 46.6197 85.6918 46.5613 85.9562 46.4459C86.2196 46.3284 86.4432 46.1696 86.6243 45.9667C86.8059 45.7649 86.9435 45.5295 87.0356 45.2625C87.1282 44.9955 87.1748 44.7109 87.1748 44.4092C87.1748 44.0936 87.1267 43.8002 87.031 43.5301C86.9347 43.2585 86.796 43.0241 86.6144 42.8249C86.4323 42.6262 86.2098 42.4725 85.9454 42.3628C85.6815 42.2531 85.3855 42.1988 85.0564 42.1988C84.7273 42.1988 84.4303 42.2562 84.1664 42.3726Z" fill="#E4E4E3"/>
<path fill-rule="evenodd" clip-rule="evenodd" d="M95.0804 41.4688C95.4954 41.8041 95.7029 42.2636 95.7029 42.8468C95.7029 43.1344 95.6429 43.3916 95.5234 43.6177C95.4028 43.8439 95.2398 44.012 95.0344 44.1217V44.2138C95.3702 44.3246 95.6398 44.5212 95.8416 44.8053C96.0439 45.0898 96.1453 45.4215 96.1453 45.7982C96.1453 46.0797 96.0956 46.3441 95.9958 46.5956C95.8969 46.845 95.7427 47.0628 95.5332 47.2486C95.3241 47.4328 95.0582 47.5803 94.7363 47.691C94.414 47.7997 94.0331 47.855 93.5949 47.855H90.2626V40.9648H93.3066C94.0745 40.9648 94.666 41.1325 95.0804 41.4688ZM93.3687 43.6798C93.629 43.6798 93.8329 43.6162 93.9804 43.4889C94.1278 43.3621 94.2013 43.1893 94.2013 42.9694C94.2013 42.5109 93.9064 42.2812 93.317 42.2812H91.7952V43.6798H93.3687ZM93.615 46.5387C94.2939 46.5387 94.6334 46.267 94.6334 45.7263C94.6334 45.465 94.5444 45.2689 94.3658 45.1349C94.1878 45.0014 93.9343 44.9341 93.6052 44.9341H91.7952V46.5387H93.615Z" fill="#E4E4E3"/>
</svg>
