<svg width="254" height="140" viewBox="0 0 254 140" fill="none" xmlns="http://www.w3.org/2000/svg">
<path fill-rule="evenodd" clip-rule="evenodd" d="M39.5365 26.3678C38.9954 33.7012 41.2197 41.7256 45.4907 47.8261C45.9337 48.4597 46.0289 49.2221 45.8195 49.9019C45.6663 50.4 45.3492 50.859 44.8858 51.1757C43.7836 51.9318 42.2692 51.6613 41.5082 50.5759C36.5496 43.4851 34.0648 34.5395 34.6964 26.0157C34.8039 24.6945 35.9593 23.6935 37.294 23.7917C38.6326 23.8892 39.6355 25.0441 39.5365 26.3678ZM63.4907 0.870514C64.8279 0.960265 65.8347 2.11451 65.7396 3.43749C65.7284 3.62323 65.6923 3.80532 65.6378 3.97465C65.3171 5.02547 64.298 5.75098 63.152 5.67174C57.1803 5.25385 52.0024 6.69463 47.7476 9.95149C46.2558 11.0992 44.9303 12.4576 43.8204 13.986C43.0329 15.0625 41.5182 15.3114 40.4328 14.5305C39.348 13.7534 39.0956 12.2435 39.8838 11.1708C41.27 9.27052 42.9184 7.57605 44.7825 6.14347C49.9295 2.19527 56.3979 0.377032 63.4907 0.870514ZM26.9789 133.274C28.3003 133.478 29.2081 134.709 28.9981 136.021C28.979 136.14 28.9539 136.248 28.921 136.358C28.5736 137.485 27.4346 138.216 26.225 138.028C22.4301 137.437 18.66 136.578 15.0155 135.473C10.5965 134.137 6.3045 132.427 2.26299 130.381C1.0651 129.783 0.578582 128.338 1.20129 127.151C1.80768 125.962 3.26677 125.491 4.45822 126.098C8.25385 128.007 12.2828 129.619 16.4329 130.871C19.8602 131.91 23.4074 132.716 26.9789 133.274ZM55.1888 57.7419C60.5086 61.8573 67.1258 65.498 76.0014 69.1993C77.1584 69.6801 77.7385 70.9489 77.3824 72.1178C77.3768 72.1337 77.3713 72.1498 77.3658 72.166C77.3447 72.2276 77.3232 72.2901 77.2985 72.3482C76.7753 73.5743 75.355 74.1502 74.1194 73.6352C64.8391 69.765 57.8717 65.9218 52.2024 61.54C51.1466 60.7219 50.962 59.2081 51.7784 58.1585C52.6034 57.1114 54.129 56.9245 55.1888 57.7419ZM93.7398 16.148C95.2195 17.7189 96.6461 19.399 97.9801 21.1472C98.4642 21.7856 98.5827 22.5879 98.3631 23.3014C98.2208 23.7697 97.9347 24.1993 97.5072 24.5137C96.4419 25.3192 94.9184 25.1102 94.1094 24.0492C92.8804 22.4385 91.5599 20.8796 90.1948 19.4325C86.311 15.3057 81.5254 11.8161 76.3489 9.34553C75.1427 8.76945 74.6367 7.32788 75.2176 6.13169C75.7985 4.9355 77.2481 4.43431 78.4543 5.0104C84.1673 7.73466 89.4573 11.5915 93.7398 16.148ZM64.4266 129.908C65.6837 129.456 67.079 130.099 67.535 131.35C67.7185 131.861 67.7242 132.391 67.5755 132.869C67.3616 133.569 66.8273 134.166 66.0811 134.432C58.274 137.24 49.9429 138.776 41.3222 139.001C39.9829 139.036 38.8662 137.989 38.8315 136.661C38.7922 135.329 39.8572 134.228 41.1965 134.194C49.2916 133.98 57.1084 132.542 64.4266 129.908ZM105.723 34.1334C109.128 41.6397 111.245 49.7828 112.017 58.3369C112.045 58.6555 112.011 58.965 111.922 59.2563C111.644 60.1599 110.834 60.8608 109.819 60.9504C108.486 61.0676 107.305 60.0916 107.186 58.7661C106.458 50.7478 104.482 43.1234 101.297 36.1099C100.744 34.9042 101.288 33.4749 102.512 32.9292C103.736 32.3835 105.174 32.9232 105.723 34.1334ZM94.1968 107.805C94.9796 106.726 96.495 106.481 97.5798 107.258C98.4472 107.877 98.7796 108.954 98.4867 109.912C98.4101 110.161 98.295 110.397 98.1327 110.617C95.0313 114.878 91.4762 118.74 87.5626 122.081C85.1209 124.162 82.4873 126.092 79.7363 127.816C78.6056 128.525 77.1043 128.192 76.3893 127.071C75.6658 125.947 76.0137 124.46 77.1405 123.752C79.6957 122.15 82.137 120.361 84.3962 118.432C88.0232 115.337 91.3188 111.76 94.1968 107.805ZM112.706 82.0346C113.992 82.4049 114.733 83.7376 114.359 85.0134C114.357 85.0257 114.356 85.038 114.349 85.0471C113.965 86.3048 112.63 87.0216 111.356 86.657C111.165 86.601 110.973 86.5458 110.782 86.4907C110.402 86.3811 110.024 86.2719 109.644 86.1575C108.605 90.0545 107.262 93.8767 105.651 97.5223C105.11 98.7395 103.678 99.2935 102.45 98.7571C101.228 98.2239 100.65 96.8108 101.206 95.587C102.744 92.1181 104.021 88.4672 105.003 84.7479C99.62 83.0646 94.0119 81.1569 87.9384 78.9431C86.6773 78.4885 86.038 77.0902 86.4959 75.8596C86.9543 74.6089 88.3512 73.9691 89.6052 74.429C95.4704 76.5594 100.891 78.408 106.083 80.0407C106.546 77.6788 106.894 75.2888 107.128 72.8869C107.271 71.5396 108.448 70.5907 109.776 70.7219C111.112 70.8518 112.087 72.0277 111.959 73.3484C111.695 76.0752 111.286 78.7834 110.742 81.4591C111.398 81.6561 112.052 81.8454 112.706 82.0346ZM150.668 89.4241C152.004 89.5339 152.993 90.6993 152.878 92.0219C152.864 92.196 152.83 92.3658 152.781 92.5221C152.455 93.5859 151.419 94.3103 150.254 94.2144C142.497 93.5654 134.246 92.2677 125.729 90.3535C124.42 90.063 123.603 88.7756 123.9 87.4773C124.162 86.233 125.491 85.3655 126.8 85.6638C135.103 87.5238 143.131 88.7886 150.668 89.4241ZM188.819 86.8626C190.115 86.5401 191.435 87.324 191.764 88.6127C191.871 89.0534 191.852 89.4922 191.727 89.8976C191.487 90.6786 190.856 91.3203 190 91.5339L188.852 91.8066C181.328 93.5337 173.372 94.5056 165.204 94.6915C163.86 94.7228 162.745 93.6672 162.719 92.3415C162.676 91.0108 163.75 89.9122 165.086 89.8823C172.929 89.7051 180.558 88.7706 187.753 87.1209L188.819 86.8626ZM222.539 69.8684C223.573 69.0205 225.1 69.1609 225.955 70.1859C226.493 70.831 226.635 71.677 226.405 72.4204C226.273 72.8588 226.015 73.2635 225.631 73.5705C219.156 78.8855 211.972 83.2938 204.285 86.6673C203.056 87.2059 201.62 86.6539 201.078 85.4384C200.54 84.2261 201.093 82.8032 202.318 82.2653C209.601 79.0701 216.405 74.9002 222.539 69.8684ZM244.822 39.9064C245.293 38.6615 246.691 38.0294 247.946 38.4932C249.15 38.9418 249.788 40.2444 249.414 41.4484C249.399 41.499 249.387 41.5489 249.367 41.5924C246.504 49.168 242.145 56.3902 236.419 63.0643C235.548 64.0756 234.019 64.1991 232.995 63.3355C231.971 62.4718 231.866 60.9521 232.718 59.9442C238.084 53.6926 242.155 46.9524 244.822 39.9064ZM250.308 28.7497C251.481 28.8682 252.547 28.1345 252.879 27.0577C252.925 26.9097 252.955 26.7607 252.971 26.6021C253.409 22.4267 253.376 18.2059 252.868 14.06C252.709 12.7374 251.503 11.7979 250.174 11.9584C248.844 12.1111 247.894 13.3159 248.056 14.6339C248.512 18.4252 248.542 22.2831 248.141 26.1044C248.006 27.4264 248.973 28.6075 250.308 28.7497Z" fill="#A0ABB5"/>
</svg>
